<svg width="120" height="50" viewBox="0 0 120 50" fill="none" xmlns="http://www.w3.org/2000/svg">
<g clip-path="url(#clip0_2166_52)">
<mask id="mask0_2166_52" style="mask-type:luminance" maskUnits="userSpaceOnUse" x="17" y="16" width="85" height="17">
<path d="M101.227 16H17.7728V33H101.227V16Z" fill="white"/>
</mask>
<g mask="url(#mask0_2166_52)">
<path d="M28.773 32.5982L28.1497 30.6348H22.398L21.7744 32.5982H17.7801L23.5542 16.4315H26.9956L32.839 32.5982H28.773ZM25.2866 21.0499L23.3002 27.7017H27.2267L25.2866 21.0499Z" fill="#1F2127"/>
<path d="M33.2841 16.4315H37.0718V32.5982H33.2841V16.4315Z" fill="#1F2127"/>
<path d="M38.0927 29.2952C38.2628 28.497 38.5632 27.7323 38.9819 27.0318C39.3461 26.4398 39.8022 25.9097 40.3332 25.4612C40.8756 25.0113 41.4507 24.6022 42.0537 24.2375C42.5309 23.9601 42.9735 23.6944 43.3818 23.4405C43.7583 23.2094 44.1172 22.9508 44.4558 22.6669C44.7481 22.424 44.9945 22.1306 45.1834 21.8007C45.3637 21.4719 45.4552 21.1017 45.4489 20.7268C45.4489 20.0801 45.2719 19.6144 44.9178 19.3295C44.5423 19.0377 44.0766 18.8865 43.6013 18.9022C43.0604 18.8858 42.5344 19.0805 42.1346 19.445C41.7419 19.8069 41.5456 20.4113 41.5456 21.2581H37.827C37.8203 20.5546 37.9498 19.8565 38.2083 19.2022C38.4561 18.5797 38.8386 18.0198 39.3282 17.5624C39.8497 17.0832 40.4625 16.714 41.1299 16.4769C41.916 16.2023 42.7447 16.0693 43.5773 16.0841C44.2919 16.0808 45.0033 16.178 45.6907 16.3729C46.3302 16.5504 46.9298 16.8483 47.4576 17.2506C47.9761 17.6561 48.3915 18.1784 48.6701 18.7749C48.9847 19.4667 49.1387 20.2208 49.1204 20.9806C49.1287 21.6233 48.978 22.2581 48.6815 22.8284C48.3977 23.3709 48.0359 23.8689 47.6076 24.3065C47.1894 24.7331 46.7291 25.1162 46.2336 25.4499C45.7403 25.7812 45.2937 26.0622 44.8938 26.2929C44.3391 26.6625 43.8809 26.982 43.5196 27.2515C43.2094 27.4758 42.9197 27.7269 42.6536 28.0019C42.4546 28.2061 42.301 28.4502 42.203 28.7181C42.1139 28.994 42.0709 29.2827 42.076 29.5725H49.0051V32.5981H37.7809C37.7612 31.4889 37.8657 30.3811 38.0927 29.2952Z" fill="#1F2127"/>
<path d="M49.7206 19.2706C50.3678 19.2837 51.0145 19.2256 51.649 19.0973C52.0728 19.0168 52.4722 18.8389 52.8155 18.5777C53.091 18.3491 53.292 18.0435 53.3929 17.7C53.5083 17.2867 53.5628 16.8588 53.5544 16.4297H56.8585V32.5982H53.0478V21.9043H49.7206V19.2706Z" fill="#1F2127"/>
<path d="M61.1444 16.4315H64.6776V32.5982H61.1444V16.4315Z" fill="#E91E63"/>
<path d="M77.7247 21.457V32.5897H74.191V31.0187C74.046 31.289 73.8589 31.5346 73.6366 31.7461C73.3991 31.9743 73.1309 32.1686 72.84 32.3234C72.528 32.4893 72.1988 32.6206 71.8583 32.7151C71.5128 32.8137 71.1552 32.8642 70.7959 32.8651C70.0369 32.8737 69.285 32.7202 68.5902 32.4147C67.9393 32.1282 67.3539 31.7118 66.8696 31.1909C66.3802 30.6553 66.0032 30.027 65.7609 29.3431C65.2374 27.8399 65.2374 26.2039 65.7609 24.7007C66.0032 24.0168 66.3802 23.3885 66.8696 22.8528C67.3539 22.332 67.9393 21.9156 68.5902 21.6291C69.2852 21.3239 70.0374 21.1707 70.7964 21.1797C71.1557 21.1806 71.5133 21.231 71.8588 21.3298C72.2009 21.4251 72.5305 21.5608 72.8405 21.7341C73.1322 21.897 73.4002 22.099 73.6371 22.3345C73.8537 22.5468 74.0402 22.7876 74.1915 23.0504V21.457H77.7247ZM71.535 29.8642C71.9096 29.8699 72.2806 29.791 72.6205 29.6334C72.9353 29.486 73.2181 29.2781 73.4526 29.0215C73.6891 28.7584 73.8734 28.4527 73.9955 28.1206C74.1269 27.7699 74.1932 27.3982 74.1913 27.0236C74.1966 26.2933 73.9336 25.5864 73.4521 25.0372C73.2201 24.7748 72.9369 24.5626 72.62 24.4136C72.2783 24.2614 71.9085 24.1828 71.5345 24.1828C71.1605 24.1828 70.7907 24.2614 70.4491 24.4136C70.1321 24.5627 69.849 24.7749 69.6169 25.0372C69.1357 25.5865 68.8727 26.2934 68.878 27.0236C68.8758 27.3982 68.9421 27.77 69.0738 28.1206C69.1959 28.4526 69.38 28.7584 69.6164 29.0215C69.851 29.278 70.1338 29.4859 70.4486 29.6334C70.7887 29.7912 71.1601 29.8701 71.535 29.8642Z" fill="#E91E63"/>
<path d="M82.0188 32.5982H78.4849V16.4315H82.0188V23.059C82.1702 22.7963 82.3567 22.5554 82.5733 22.3431C82.8126 22.1057 83.0845 21.9035 83.3809 21.7428C83.6921 21.5721 84.0214 21.4365 84.3626 21.3384C84.7117 21.2381 85.0732 21.1876 85.4365 21.1884C86.1955 21.1798 86.9474 21.3333 87.6422 21.6387C88.293 21.9253 88.8788 22.3417 89.3626 22.8625C89.8521 23.3982 90.2289 24.0265 90.4719 24.7104C90.9946 26.2136 90.9946 27.8496 90.4719 29.3528C90.2289 30.0365 89.8521 30.6649 89.3626 31.2006C88.8788 31.7214 88.293 32.1378 87.6422 32.4244C86.9474 32.7298 86.1955 32.8833 85.4365 32.8747C85.0732 32.8755 84.7117 32.825 84.3626 32.7247C84.023 32.6276 83.694 32.4964 83.3809 32.3331C83.0854 32.1804 82.8134 31.9859 82.5733 31.7557C82.351 31.5442 82.1638 31.2987 82.0188 31.0283V32.5982ZM84.6981 29.8726C85.0652 29.8767 85.4283 29.7978 85.7606 29.6419C86.0755 29.4944 86.3582 29.2866 86.5928 29.0299C86.8293 28.7668 87.0135 28.4611 87.1356 28.129C87.267 27.7783 87.3333 27.4066 87.3314 27.0321C87.3367 26.3017 87.0737 25.5949 86.5923 25.0457C86.3602 24.7833 86.0771 24.5711 85.7601 24.4221C85.428 24.266 85.065 24.1866 84.6981 24.19C84.3199 24.1853 83.9454 24.2642 83.6012 24.4208C83.2798 24.5676 82.9927 24.7801 82.7583 25.0444C82.2768 25.5937 82.0137 26.3005 82.0191 27.0308C82.0171 27.4054 82.0834 27.7771 82.2149 28.1278C82.3368 28.4599 82.5211 28.7657 82.7578 29.0287C82.9947 29.2873 83.2814 29.4954 83.6007 29.6406C83.9449 29.798 84.3196 29.8772 84.6981 29.8726Z" fill="#E91E63"/>
<path d="M97.5042 26.0386C97.9965 26.1771 98.4583 26.3272 98.8897 26.4889C99.2927 26.6358 99.6738 26.8379 100.022 27.0895C100.342 27.3252 100.606 27.6288 100.795 27.9787C101.001 28.3942 101.1 28.8546 101.084 29.3182C101.103 29.9013 100.967 30.479 100.691 30.9928C100.428 31.448 100.055 31.8294 99.6058 32.1015C99.1114 32.399 98.5674 32.6062 98.0007 32.7134C97.3576 32.8396 96.7038 32.9015 96.0486 32.8979C94.4626 32.8979 93.2117 32.5515 92.2958 31.8587C91.3792 31.1658 91.1065 30.1727 91.1065 28.8791H94.3861C94.3861 29.4646 94.5519 29.8842 94.8827 30.1379C95.2552 30.4049 95.7065 30.5391 96.1647 30.519C96.5302 30.5347 96.8936 30.451 97.2152 30.2767C97.3498 30.1939 97.4582 30.0757 97.5297 29.9351C97.6005 29.7945 97.6317 29.6369 97.6197 29.4798C97.6289 29.291 97.5672 29.1057 97.4461 28.9601C97.2952 28.8037 97.1146 28.6782 96.9149 28.5906C96.616 28.4523 96.3071 28.3365 95.9912 28.244C95.6137 28.1285 95.1632 27.9861 94.6404 27.8169C94.1786 27.6782 93.7394 27.5281 93.3236 27.3666C92.934 27.2189 92.565 27.0209 92.2264 26.7775C91.9112 26.5474 91.6548 26.2468 91.4763 25.8998C91.2772 25.482 91.1823 25.0225 91.1986 24.5601C91.1986 23.4053 91.6413 22.5508 92.5267 21.9965C93.4122 21.4423 94.6092 21.1649 96.118 21.1644C96.8334 21.1524 97.546 21.2498 98.2317 21.4532C98.7806 21.6142 99.2913 21.8852 99.7326 22.2499C100.117 22.5773 100.421 22.9881 100.622 23.4511C100.823 23.9177 100.925 24.421 100.923 24.9292H97.4348C97.4596 24.5383 97.3307 24.1532 97.0771 23.8552C96.9305 23.7189 96.7576 23.6146 96.5685 23.549C96.3794 23.4834 96.1789 23.4579 95.9799 23.4741C95.6547 23.4662 95.3346 23.5503 95.0562 23.7166C94.928 23.7941 94.8246 23.905 94.7552 24.0373C94.6857 24.1696 94.6539 24.3182 94.6631 24.4673C94.6567 24.6507 94.7233 24.8293 94.848 24.9639C95.0038 25.1172 95.1887 25.2388 95.3905 25.3219C95.6802 25.4484 95.977 25.5563 96.2802 25.6453C96.6337 25.7538 97.0417 25.8849 97.5042 26.0386Z" fill="#E91E63"/>
</g>
</g>
<defs>
<clipPath id="clip0_2166_52">
<rect width="85" height="17" fill="white" transform="translate(17 16)"/>
</clipPath>
</defs>
</svg>
