<svg width="120" height="50" viewBox="0 0 120 50" fill="none" xmlns="http://www.w3.org/2000/svg">
<g clip-path="url(#clip0_2166_52)">
<path d="M28.0684 19H28.8254C29.8906 19.0599 31.0261 19.2614 31.875 19.9639C32.5509 20.5193 32.8375 21.4614 32.6698 22.3163C32.5455 22.948 32.2535 23.5361 31.9399 24.097C31.3073 25.2025 30.5232 26.2153 29.7824 27.2554C29.6473 27.4243 29.5445 27.6366 29.5553 27.8599C29.5716 28.0342 29.7067 28.1757 29.8635 28.2411C30.1663 28.3663 30.507 28.3391 30.826 28.3228C31.8426 28.2139 32.8212 27.9035 33.7891 27.5931C33.8594 27.5495 33.8864 27.6257 33.9135 27.6802C32.8861 28.3663 31.7777 28.9436 30.6151 29.3683C29.9717 29.5861 29.2904 29.7931 28.6037 29.7114C28.2468 29.6733 27.8845 29.4609 27.771 29.096C27.6304 28.6277 27.6845 28.105 27.8845 27.6584C28.1927 26.9614 28.674 26.3678 29.1228 25.7634C29.8744 24.7723 30.6476 23.7866 31.237 22.6812C31.437 22.2946 31.6425 21.8153 31.4478 21.3851C31.2694 20.9876 30.8693 20.7535 30.4908 20.5738C29.8203 20.2743 29.1011 20.0891 28.3928 19.8876C28.2847 19.9602 28.1783 20.031 28.0738 20.1C28.3171 20.2906 28.5658 20.4812 28.8092 20.6718C27.8791 20.8406 26.9491 21.0312 26.0299 21.2653C24.6349 21.6193 23.2723 22.0876 21.9205 22.5777C22.0503 22.8446 22.1854 23.1114 22.3098 23.3782C22.0016 23.7213 21.6988 24.0644 21.396 24.402C22.126 24.6252 22.9208 24.6579 23.667 24.4891C24.305 24.3421 24.9106 24.0371 25.3973 23.596C25.2621 23.4272 25.0945 23.2911 24.916 23.1822C25.5108 23.1985 26.0515 23.7158 26.0515 24.3257C25.9362 24.3257 25.8208 24.3257 25.7055 24.3257C25.6802 24.195 25.6442 24.0662 25.5973 23.9391C24.9214 24.5545 24.0509 24.9411 23.1479 25.0391C22.3531 25.1317 21.542 25.0228 20.7904 24.7396C20.8445 25.2043 20.8949 25.669 20.9418 26.1337C20.5146 26.3025 20.1199 26.5421 19.7684 26.8361C19.4873 27.0812 19.2061 27.3644 19.1034 27.7347C18.9952 28.0614 19.1683 28.4317 19.4494 28.6059C19.7901 28.8183 20.1902 28.9218 20.5903 28.9762C21.1094 29.047 21.6393 29.0416 22.1638 29.0035C23.1912 28.9272 24.2131 28.7312 25.2134 28.4861C25.3107 28.448 25.3594 28.6114 25.2567 28.6386C24.4564 29.0525 23.6237 29.401 22.7478 29.6243C21.9313 29.8421 21.0878 29.951 20.2389 29.9782C19.3791 29.951 18.4599 29.7822 17.7786 29.2158C17.2704 28.802 17 28.1431 17 27.4896V27.4569C17.0162 26.7653 17.2487 26.0955 17.584 25.502C18.0219 24.6579 18.5627 23.8683 19.2007 23.1658C20.3038 21.9351 21.688 20.9876 23.1749 20.3015C24.7214 19.599 26.3705 19.0926 28.0684 19Z" fill="#FF5A00"/>
<path fill-rule="evenodd" clip-rule="evenodd" d="M41.3375 19.3431C42.5631 19.3431 43.7887 19.3412 45.0143 19.3376C46.6311 22.7574 48.2478 26.1772 49.8591 29.597C48.6371 29.597 47.4097 29.597 46.1877 29.597C45.9389 28.9799 45.6884 28.3627 45.4361 27.7455C43.7491 27.7455 42.062 27.7455 40.375 27.7455C40.1083 28.3627 39.8397 28.9799 39.5694 29.597C38.4663 29.597 37.3632 29.597 36.2602 29.597C37.0388 28.0233 37.8229 26.4549 38.5961 24.8812C39.5099 23.0297 40.4291 21.1891 41.3375 19.3431ZM42.9975 21.7936C42.4459 23.0315 41.8944 24.2676 41.3429 25.502C42.4171 25.502 43.4895 25.502 44.5601 25.502C44.041 24.2658 43.5166 23.0297 42.9975 21.7936ZM50.7837 19.3431C51.8543 19.3431 52.9231 19.3431 53.9902 19.3431C53.9902 22.7592 53.9902 26.1772 53.9902 29.597C52.9231 29.597 51.8543 29.597 50.7837 29.597C50.7837 26.1772 50.7837 22.7592 50.7837 19.3431ZM56.0016 19.3431C57.0722 19.3431 58.1428 19.3431 59.2134 19.3431C59.2134 20.0256 59.2134 20.7081 59.2134 21.3906C58.1428 21.3906 57.0722 21.3906 56.0016 21.3906C56.0016 20.7081 56.0016 20.0256 56.0016 19.3431ZM61.2357 19.354C62.2847 19.3503 63.3337 19.3503 64.3826 19.354C64.3826 20.7444 64.3826 22.133 64.3826 23.5198C64.9882 22.8554 65.8155 22.3817 66.7185 22.2891C67.535 22.2129 68.4001 22.349 69.0977 22.8064C69.4167 23.0079 69.7033 23.2747 69.9412 23.5688C70.4332 24.2604 70.7198 25.1044 70.7414 25.954C70.7631 26.6619 70.6657 27.3916 70.3251 28.0178C70.1034 28.4317 69.7898 28.7965 69.4221 29.0797C68.7949 29.5262 68.027 29.7931 67.2538 29.7713C66.5293 29.7658 65.7939 29.5643 65.1991 29.1396C64.8747 28.9109 64.5989 28.6277 64.3502 28.3173C64.3502 28.7457 64.3502 29.1723 64.3502 29.597C63.312 29.597 62.2739 29.597 61.2357 29.597C61.2321 26.1809 61.2321 22.7665 61.2357 19.354ZM65.5452 23.9881C65.1126 24.0861 64.7395 24.402 64.5611 24.8104C64.4151 25.1698 64.3664 25.5619 64.3556 25.9485C64.361 26.4658 64.4367 27.0267 64.7828 27.4406C65.0153 27.7564 65.41 27.8871 65.7777 27.947C66.2589 28.0178 66.7347 27.7945 67.0538 27.4351C67.3458 27.1574 67.4593 26.7544 67.5188 26.3624C67.5674 25.9376 67.5512 25.4911 67.416 25.0827C67.3025 24.7178 67.0862 24.3693 66.7618 24.1678C66.3995 23.9445 65.9507 23.8901 65.5452 23.9881ZM82.5236 19.354C83.5725 19.3503 84.6215 19.3503 85.6705 19.354C85.6705 20.7444 85.6723 22.133 85.6759 23.5198C86.195 22.9535 86.8763 22.5124 87.6387 22.349C88.347 22.1965 89.104 22.2564 89.7853 22.5015C90.5585 22.7955 91.2182 23.3891 91.5697 24.1406C92.0347 25.0337 92.132 26.0846 91.9482 27.0648C91.8238 27.7346 91.4832 28.3609 90.9965 28.8346C90.445 29.3629 89.7042 29.6733 88.9526 29.7549C88.174 29.8257 87.3575 29.6842 86.687 29.2648C86.2815 29.0198 85.9354 28.6876 85.6381 28.3173C85.6435 28.7475 85.6435 29.1723 85.6435 29.597C84.5981 29.597 83.5545 29.597 82.5127 29.597C82.5127 28.3554 82.5127 27.112 82.5127 25.8668C82.529 23.6941 82.5236 21.5213 82.5236 19.354ZM86.8384 23.9881C86.3734 24.0861 85.9841 24.4455 85.8219 24.8921C85.6921 25.246 85.6489 25.6163 85.6435 25.9921C85.6597 26.4223 85.7083 26.8688 85.9354 27.2445C86.0652 27.446 86.2166 27.6421 86.4383 27.7455C86.779 27.9143 87.1737 28.0124 87.5522 27.9252C87.9739 27.8272 88.32 27.5168 88.5579 27.1629C88.8661 26.5584 88.904 25.8396 88.7363 25.1861C88.639 24.7995 88.4335 24.4292 88.1037 24.2005C87.736 23.95 87.2656 23.8846 86.8384 23.9881ZM74.5643 22.3708C75.397 22.2074 76.2567 22.202 77.1002 22.2455C77.9113 22.3054 78.744 22.4307 79.4631 22.8228C79.82 23.0242 80.1444 23.302 80.3499 23.6559C80.5878 24.0589 80.6743 24.5327 80.6797 24.9955C80.6797 26.5275 80.6797 28.0577 80.6797 29.5861C79.6956 29.5861 78.7133 29.5861 77.7328 29.5861C77.7328 29.2376 77.7328 28.8891 77.7328 28.5406C77.284 29.1396 76.5865 29.4936 75.8674 29.6297C75.0617 29.7876 74.2074 29.8094 73.4125 29.5698C73.0232 29.4445 72.6393 29.2594 72.3473 28.9599C72.0445 28.6549 71.8877 28.2302 71.8661 27.8C71.8174 27.1901 72.0337 26.5584 72.4825 26.1282C73.0449 25.5891 73.8127 25.3441 74.5643 25.2079C75.5862 25.0337 76.6298 25.0119 77.6625 24.9846C77.6625 24.6307 77.5652 24.2549 77.3003 24.0099C77.0515 23.7757 76.6947 23.6995 76.3594 23.7049C76.0729 23.6995 75.7646 23.7648 75.5538 23.9718C75.4186 24.1079 75.3321 24.2876 75.278 24.4673C74.3047 24.4673 73.3296 24.4673 72.3527 24.4673C72.423 24.0099 72.5907 23.5579 72.9043 23.2094C73.3314 22.7356 73.9533 22.496 74.5643 22.3708ZM76.2405 26.3842C75.8998 26.4386 75.5375 26.5203 75.278 26.7653C74.9806 27.0431 74.9968 27.604 75.3375 27.8381C75.5916 28.0069 75.9052 28.0233 76.1972 28.0124C76.6027 27.996 77.0407 27.8926 77.3165 27.5713C77.6193 27.2391 77.6788 26.7653 77.6734 26.3297C77.1921 26.3297 76.7163 26.3297 76.2405 26.3842ZM95.8846 22.3653C96.7389 22.202 97.6148 22.202 98.4746 22.251C99.2586 22.3109 100.059 22.4416 100.756 22.8173C101.097 23.0079 101.405 23.2747 101.616 23.6069C101.849 23.9663 101.951 24.402 101.968 24.8322C101.968 26.415 101.968 27.9997 101.968 29.5861C100.991 29.5861 100.014 29.5861 99.0369 29.5861C99.0369 29.2376 99.0315 28.8837 99.0369 28.5351C98.5773 29.1505 97.8527 29.5044 97.112 29.6406C96.3117 29.7876 95.4736 29.8094 94.6896 29.5589C94.3489 29.45 94.0191 29.2975 93.7433 29.0579C93.4405 28.7965 93.2405 28.4153 93.1864 28.0178C93.1107 27.5168 93.181 26.9832 93.4459 26.5475C93.7271 26.0846 94.1867 25.7579 94.6788 25.5455C95.4195 25.2297 96.236 25.1371 97.0363 25.0663C97.6743 25.0173 98.3232 25.001 98.9666 24.9846C98.9504 24.6525 98.8747 24.2985 98.6368 24.048C98.3935 23.7921 98.0312 23.7049 97.6959 23.7049C97.3823 23.6995 97.0471 23.7594 96.8254 23.999C96.701 24.1297 96.6307 24.2985 96.5767 24.4673C95.6034 24.4673 94.6247 24.4673 93.6514 24.4673C93.7163 24.0208 93.8785 23.5797 94.1813 23.2366C94.6085 22.7356 95.2573 22.496 95.8846 22.3653ZM97.5229 26.3896C97.1985 26.4386 96.8524 26.5203 96.5983 26.7436C96.2793 27.0158 96.2847 27.604 96.6415 27.8381C96.9119 28.0178 97.258 28.0287 97.5716 28.0124C97.9609 27.9851 98.3664 27.8653 98.626 27.5604C98.9125 27.2228 98.9828 26.7599 98.9612 26.3297C98.4854 26.3297 98.0041 26.3351 97.5229 26.3896ZM56.0016 22.4851C57.0722 22.4851 58.1428 22.4851 59.2134 22.4851C59.2134 24.8558 59.2134 27.2264 59.2134 29.597C58.1428 29.597 57.0722 29.597 56.0016 29.597C56.0016 27.2264 56.0016 24.8558 56.0016 22.4851Z" fill="#FF5A00"/>
</g>
<defs>
<clipPath id="clip0_2166_52">
<rect width="85" height="11" fill="white" transform="translate(17 19)"/>
</clipPath>
</defs>
</svg>
