<svg width="120" height="50" viewBox="0 0 120 50" fill="none" xmlns="http://www.w3.org/2000/svg">
<g clip-path="url(#clip0_2166_52)">
<path d="M40.9217 31.5805C43.026 31.5805 44.8678 30.5283 45.5958 28.4039C45.7372 27.9785 45.5344 27.6958 45.1304 27.6958H44.3409C43.9768 27.6958 43.7342 27.8572 43.5714 28.2012C42.9447 29.4362 42.0738 29.8802 40.9817 29.8802C39.0386 29.8802 37.8451 28.5238 37.8451 26.2582C37.8451 23.9925 39.08 22.6362 40.9403 22.6362C42.0738 22.6362 43.0047 23.1216 43.5914 24.2751C43.7742 24.6192 43.9954 24.7805 44.3609 24.7805H45.1504C45.5544 24.7805 45.7572 24.5178 45.6158 24.1324C44.7663 21.8253 42.8633 20.9358 40.9217 20.9358C37.9878 20.9358 35.8021 23.1016 35.8021 26.2582C35.8021 29.4147 37.8865 31.5805 40.9217 31.5805ZM93.875 25.3273C94.1377 23.607 95.3113 22.5348 96.9102 22.5348C98.5092 22.5348 99.7027 23.627 99.844 25.3273H93.875ZM96.9916 31.5805C98.8533 31.5805 100.715 30.711 101.626 28.748C101.848 28.2826 101.646 27.9585 101.242 27.9585H100.493C100.13 27.9585 99.9068 28.1198 99.7241 28.4439C99.1173 29.5161 98.0652 29.9615 96.993 29.9615C95.1513 29.9615 93.9578 28.7066 93.8164 26.6636H101.243C101.648 26.6636 101.912 26.4409 101.912 26.0155C101.83 22.8389 99.7669 20.9373 96.9131 20.9373C94.0592 20.9373 91.7935 23.0017 91.7935 26.2596C91.7935 29.5175 93.9992 31.5819 96.9944 31.5819L96.9916 31.5805ZM85.2148 26.5222H85.8829C86.287 26.5222 86.5097 26.2996 86.5711 25.8741C86.9566 23.1401 88.557 22.7775 90.2588 22.8589C90.6228 22.876 90.9212 22.5962 90.9212 22.2307V21.604C90.9212 21.2 90.7184 20.9558 90.3144 20.9358C88.8083 20.8787 87.4648 21.3955 86.6882 22.8589C86.6453 22.9388 86.5254 22.9174 86.5154 22.8275L86.3898 21.7239C86.3498 21.3199 86.1271 21.1171 85.7217 21.1171H82.6664C82.3095 21.1171 82.0183 21.407 82.0183 21.7653V22.1094C82.0183 22.4663 82.3081 22.7575 82.6664 22.7575H83.9213C84.2783 22.7575 84.5695 23.0473 84.5695 23.4057V25.8741C84.5695 26.231 84.8593 26.5222 85.2177 26.5222H85.2148ZM82.4837 31.3792H88.8168C89.2208 31.3792 89.4649 31.1365 89.4649 30.731V30.3869C89.4649 29.9829 89.2223 29.7388 88.8168 29.7388H87.1978C86.7938 29.7388 86.5497 29.4961 86.5497 29.0907V27.9771C86.5497 27.573 86.307 27.3289 85.9015 27.3289H85.2134C84.8093 27.3289 84.5653 27.5716 84.5653 27.9771V29.0907C84.5653 29.4947 84.3225 29.7388 83.9171 29.7388H82.4808C82.0768 29.7388 81.8327 29.9815 81.8327 30.3869V30.731C81.8327 31.1351 82.0754 31.3792 82.4808 31.3792H82.4837ZM72.7099 25.3287C72.9727 23.6084 74.1462 22.5362 75.7452 22.5362C77.3441 22.5362 78.5377 23.6284 78.679 25.3287H72.7099ZM75.8265 31.5819C77.6882 31.5819 79.5498 30.7125 80.4607 28.7494C80.6834 28.284 80.4807 27.9599 80.0767 27.9599H79.3286C78.9645 27.9599 78.7418 28.1212 78.5591 28.4453C77.9523 29.5175 76.9001 29.9629 75.8279 29.9629C73.9863 29.9629 72.7928 28.708 72.6514 26.6651H80.0781C80.4821 26.6651 80.7463 26.4423 80.7463 26.0169C80.6648 22.8403 78.6019 20.9387 75.748 20.9387C72.8941 20.9387 70.6284 23.0031 70.6284 26.261C70.6284 29.5189 72.8342 31.5833 75.8294 31.5833L75.8265 31.5819ZM52.4158 31.5819C55.451 31.5819 57.6168 29.3362 57.6168 26.2596C57.6168 23.183 55.451 20.9373 52.4158 20.9373C49.3806 20.9373 47.2148 23.2244 47.2148 26.2596C47.2148 26.9677 47.3362 27.7572 47.7002 28.6267C47.8829 29.0521 48.227 29.1121 48.5911 28.8493L49.1778 28.4239C49.4819 28.2012 49.5618 27.9385 49.4605 27.5545C49.2992 27.0491 49.2578 26.6037 49.2578 26.2196C49.2578 24.0952 50.5327 22.6376 52.4143 22.6376C54.296 22.6376 55.5709 24.0738 55.5709 26.2596C55.5709 28.4453 54.316 29.8816 52.4543 29.8816C51.8062 29.8816 51.1994 29.7602 50.4713 29.2134C50.1672 28.9707 49.8845 28.9307 49.5604 29.1734L49.115 29.4975C48.7509 29.7602 48.711 30.1242 49.0536 30.4083C50.1058 31.2578 51.3193 31.5819 52.4129 31.5819H52.4158ZM60.1851 31.3792H60.8533C61.2102 31.3792 61.5014 31.0893 61.5014 30.731V25.8955C61.5014 23.8525 62.5935 22.6376 64.2939 22.6376C65.8315 22.6376 66.7223 23.6498 66.7223 25.5115V30.7324C66.7223 31.0893 67.0122 31.3806 67.3705 31.3806H68.0586C68.4155 31.3806 68.7068 31.0907 68.7068 30.7324V25.1874C68.7068 22.4563 67.3105 20.9387 64.9435 20.9387C63.3317 20.9387 62.3794 21.5983 61.6684 22.5163C61.6142 22.5862 61.5043 22.5477 61.5043 22.4606V18.0648C61.4999 17.7065 61.2102 17.4167 60.8533 17.4167H60.1851C59.8282 17.4167 59.5369 17.7065 59.5369 18.0648V30.731C59.5369 31.0879 59.8268 31.3792 60.1851 31.3792Z" fill="#39594D"/>
<mask id="mask0_2166_52" style="mask-type:luminance" maskUnits="userSpaceOnUse" x="17" y="17" width="15" height="15">
<path d="M31.1667 17.4167H17V31.5833H31.1667V17.4167Z" fill="white"/>
</mask>
<g mask="url(#mask0_2166_52)">
<path fill-rule="evenodd" clip-rule="evenodd" d="M21.5898 25.8516C21.9711 25.8516 22.7296 25.8307 23.778 25.399C24.9998 24.896 27.4305 23.9828 29.184 23.0449C30.4103 22.3889 30.9479 21.5213 30.9479 20.3529C30.9479 18.7312 29.6333 17.4167 28.0117 17.4167H21.2175C18.8882 17.4167 17 19.3049 17 21.6341C17 23.9634 18.7679 25.8516 21.5898 25.8516Z" fill="#39594D"/>
<path fill-rule="evenodd" clip-rule="evenodd" d="M22.7389 28.7558C22.7389 27.6141 23.4263 26.5847 24.4808 26.147L26.6205 25.259C28.7848 24.3608 31.1669 25.9512 31.1669 28.2946C31.1669 30.11 29.6949 31.5816 27.8794 31.5811L25.5628 31.5805C24.0031 31.5801 22.7389 30.3156 22.7389 28.7558Z" fill="#D18EE2"/>
<path d="M19.4312 26.4076C18.0885 26.4076 17 27.496 17 28.8387V29.1536C17 30.4963 18.0885 31.5848 19.4312 31.5848C20.7739 31.5848 21.8624 30.4963 21.8624 29.1536V28.8387C21.8624 27.496 20.774 26.4076 19.4312 26.4076Z" fill="#FF7759"/>
</g>
</g>
<defs>
<clipPath id="clip0_2166_52">
<rect width="85" height="15" fill="white" transform="translate(17 17)"/>
</clipPath>
</defs>
</svg>
