<svg width="120" height="50" viewBox="0 0 120 50" fill="none" xmlns="http://www.w3.org/2000/svg">
<path d="M31.3649 21.19V23.65H37.3243C37.1419 25.03 36.6757 26.04 35.9662 26.75C35.0946 27.61 33.7365 28.55 31.3649 28.55C27.6959 28.55 24.8277 25.63 24.8277 22.01C24.8277 18.39 27.6959 15.47 31.3649 15.47C33.3412 15.47 34.7905 16.24 35.8547 17.23L37.6081 15.5C36.1284 14.08 34.1419 13 31.3649 13C26.3378 13 22.1115 17.04 22.1115 22C22.1115 26.96 26.3378 31 31.3649 31C34.0811 31 36.1284 30.12 37.7297 28.48C39.3716 26.86 39.8885 24.57 39.8885 22.73C39.8885 22.16 39.848 21.63 39.7568 21.19H31.3649Z" fill="#4285F4"/>
<path d="M47.3378 19.19C44.0845 19.19 41.429 21.63 41.429 25C41.429 28.34 44.0845 30.81 47.3378 30.81C50.5912 30.81 53.2466 28.35 53.2466 25C53.2466 21.63 50.5912 19.19 47.3378 19.19ZM47.3378 28.52C45.554 28.52 44.0135 27.07 44.0135 25C44.0135 22.91 45.554 21.48 47.3378 21.48C49.1216 21.48 50.6622 22.91 50.6622 25C50.6622 27.07 49.1216 28.52 47.3378 28.52Z" fill="#EA4335"/>
<path d="M76.304 20.49H76.2128C75.6351 19.81 74.5203 19.19 73.1115 19.19C70.1723 19.19 67.6081 21.72 67.6081 25C67.6081 28.26 70.1723 30.81 73.1115 30.81C74.5203 30.81 75.6351 30.19 76.2128 29.49H76.304V30.3C76.304 32.52 75.098 33.71 73.1621 33.71C71.5811 33.71 70.598 32.59 70.1926 31.64L67.9426 32.56C68.5912 34.1 70.304 35.99 73.1621 35.99C76.1926 35.99 78.7567 34.23 78.7567 29.94V19.49H76.304V20.49ZM73.3344 28.52C71.5507 28.52 70.1926 27.02 70.1926 25C70.1926 22.95 71.5507 21.48 73.3344 21.48C75.098 21.48 76.4763 22.98 76.4763 25.02C76.4865 27.05 75.098 28.52 73.3344 28.52Z" fill="#4285F4"/>
<path d="M60.5135 19.19C57.2601 19.19 54.6047 21.63 54.6047 25C54.6047 28.34 57.2601 30.81 60.5135 30.81C63.7669 30.81 66.4223 28.35 66.4223 25C66.4223 21.63 63.7669 19.19 60.5135 19.19ZM60.5135 28.52C58.7297 28.52 57.1892 27.07 57.1892 25C57.1892 22.91 58.7297 21.48 60.5135 21.48C62.2973 21.48 63.8378 22.91 63.8378 25C63.8378 27.07 62.2973 28.52 60.5135 28.52Z" fill="#FBBC05"/>
<path d="M80.7838 13.24H83.3277V30.81H80.7838V13.24Z" fill="#34A853"/>
<path d="M91.1824 28.52C89.8649 28.52 88.9324 27.93 88.3243 26.76L96.1993 23.55L95.9358 22.89C95.4493 21.59 93.9493 19.19 90.8987 19.19C87.8683 19.19 85.3446 21.54 85.3446 25C85.3446 28.26 87.8378 30.81 91.1824 30.81C93.8784 30.81 95.4392 29.18 96.0878 28.24L94.0811 26.92C93.4122 27.88 92.5 28.52 91.1824 28.52ZM91 21.37C92.0439 21.37 92.9358 21.9 93.2297 22.65L87.9088 24.82C87.9088 22.38 89.6622 21.37 91 21.37Z" fill="#EA4335"/>
</svg>
