<svg width="120" height="50" viewBox="0 0 120 50" fill="none" xmlns="http://www.w3.org/2000/svg">
<g clip-path="url(#clip0_2166_52)">
<path d="M35 15V16.3684H44.7324V15H35ZM46.1113 15V16.3684H59.9805C59.9805 16.3684 58.5638 15 56.6875 15H46.1113ZM62.7012 15V16.3684H71.0918L70.5938 15H62.7012ZM77.1074 15L76.6094 16.3684H84.9238V15H77.1074ZM35 17.6611V19.0295H44.7324V17.6611H35ZM46.1113 17.663V19.0295H61.5898C61.5898 19.0295 61.4091 17.9763 61.0938 17.663H46.1113ZM62.7012 17.663V19.0295H72.0117L71.5508 17.663H62.7012ZM76.1113 17.663L75.6504 19.0295H84.9238V17.663H76.1113ZM37.7969 20.3222V21.6925H42.0117V20.3222H37.7969ZM48.9082 20.3222V21.6925H53.123V20.3222H48.9082ZM57.2227 20.3222V21.6925H61.4375C61.4375 21.6925 61.7051 20.9689 61.7051 20.3222H57.2227ZM65.498 20.3222V21.6925H72.9707L72.4727 20.3222H65.498ZM75.1934 20.3222L74.6934 21.6925H82.2031V20.3222H75.1934ZM37.7969 22.9853V24.3536H42.0117V22.9853H37.7969ZM48.9082 22.9853V24.3536H59.6738C59.6738 24.3536 60.5744 23.6515 60.8613 22.9853H48.9082ZM65.498 22.9853V24.3536H69.7129V23.5919L69.9805 24.3536H77.7012L77.9883 23.5919V24.3536H82.2031V22.9853H74.291L73.8711 24.1443L73.4492 22.9853H65.498ZM37.7969 25.6464V27.0147H42.0117V25.6464H37.7969ZM48.9082 25.6464V27.0147H60.8613C60.5743 26.3507 59.6738 25.6464 59.6738 25.6464H48.9082ZM65.498 25.6464V27.0147H69.7129V25.6464H65.498ZM70.4785 25.6464L70.9883 27.0147H76.7773L77.2617 25.6464H70.4785ZM77.9883 25.6464V27.0147H82.2031V25.6464H77.9883ZM37.7969 28.3075V29.6758H42.0117V28.3075H37.7969ZM48.9082 28.3075V29.6758H53.123V28.3075H48.9082ZM57.2227 28.3075V29.6758H61.7051C61.7051 29.0301 61.4375 28.3075 61.4375 28.3075H57.2227ZM65.498 28.3075V29.6758H69.7129V28.3075H65.498ZM71.4355 28.3075L71.9297 29.6758H75.8105L76.3086 28.3075H71.4355ZM77.9883 28.3075V29.6758H82.2031V28.3075H77.9883ZM35.0762 30.9686V32.3389H44.8086V30.9686H35.0762ZM46.1113 30.9686V32.3389H61.0938C61.4091 32.0251 61.5898 30.9686 61.5898 30.9686H46.1113ZM62.7773 30.9686V32.3389H69.7129V30.9686H62.7773ZM72.3945 30.9686L72.9023 32.3389H74.877L75.3535 30.9686H72.3945ZM77.9883 30.9686V32.3389H85V30.9686H77.9883ZM35.0762 33.6317V35H44.8086V33.6317H35.0762ZM46.1113 33.6317V34.9981H56.6875C58.5638 34.9981 59.9805 33.6317 59.9805 33.6317H46.1113ZM62.7773 33.6317V35H69.7129V33.6317H62.7773ZM73.3574 33.6317L73.8457 34.9961L73.9297 34.9981L74.4258 33.6317H73.3574ZM77.9883 33.6317V35H85V33.6317H77.9883Z" fill="#1F70C1"/>
</g>
<defs>
<clipPath id="clip0_2166_52">
<rect width="50" height="20" fill="white" transform="translate(35 15)"/>
</clipPath>
</defs>
</svg>
