<svg width="120" height="50" viewBox="0 0 120 50" fill="none" xmlns="http://www.w3.org/2000/svg">
<path d="M28.9499 27.1264C28.9499 27.8929 29.1162 28.4813 29.3334 28.8374C29.6183 29.3037 30.0431 29.5012 30.4763 29.5012C31.0349 29.5012 31.546 29.3609 32.5309 27.9822C33.3199 26.8771 34.2497 25.326 34.8752 24.3536L35.9346 22.7061C36.6706 21.562 37.5224 20.2901 38.499 19.4279C39.2963 18.7243 40.1564 18.3333 41.0219 18.3333C42.4752 18.3333 43.8594 19.1857 44.9188 20.7843C46.0782 22.5351 46.641 24.7403 46.641 27.0161C46.641 28.3689 46.3776 29.363 45.9292 30.1484C45.4961 30.9079 44.6519 31.6667 43.2318 31.6667V29.5012C44.4477 29.5012 44.7512 28.3703 44.7512 27.0761C44.7512 25.2318 44.3264 23.185 43.3904 21.7225C42.7262 20.6852 41.8655 20.0513 40.9185 20.0513C39.8943 20.0513 39.0701 20.8332 38.1438 22.2272C37.6513 22.9679 37.1458 23.8705 36.5781 24.889L35.9533 26.0094C34.698 28.2621 34.38 28.7752 33.7524 29.622C32.6523 31.1047 31.7129 31.6667 30.4763 31.6667C29.0093 31.6667 28.0816 31.0237 27.5071 30.0548C27.0381 29.2653 26.8077 28.2293 26.8077 27.0489L28.9499 27.1264Z" fill="#0081FB"/>
<path d="M28.4968 20.9372C29.4789 19.4049 30.8963 18.3333 32.5219 18.3333C33.4634 18.3333 34.3993 18.6154 35.3767 19.423C36.4457 20.3061 37.5851 21.7602 39.0066 24.1567L39.5163 25.0168C40.7468 27.0915 41.4468 28.1588 41.8565 28.6621C42.3834 29.3086 42.7524 29.5012 43.2318 29.5012C44.4477 29.5012 44.7512 28.3703 44.7512 27.0761L46.641 27.0161C46.641 28.3689 46.3776 29.363 45.9292 30.1484C45.4961 30.9079 44.6519 31.6667 43.2318 31.6667C42.349 31.6667 41.5668 31.4726 40.7019 30.6468C40.037 30.0129 39.2597 28.8869 38.6618 27.8747L36.883 24.8674C35.9905 23.3581 35.1718 22.2328 34.698 21.7232C34.1883 21.1752 33.5331 20.5134 32.4875 20.5134C31.6412 20.5134 30.9225 21.1145 30.3211 22.0339L28.4968 20.9372Z" fill="url(#paint0_linear_2166_52)"/>
<path d="M32.4875 20.5134C31.6412 20.5134 30.9225 21.1145 30.3211 22.0339C29.4707 23.333 28.9499 25.2681 28.9499 27.1264C28.9499 27.8929 29.1162 28.4813 29.3334 28.8374L27.5071 30.0548C27.0381 29.2653 26.8077 28.2293 26.8077 27.0489C26.8077 24.9023 27.3898 22.6649 28.4968 20.9372C29.4789 19.4049 30.8963 18.3333 32.522 18.3333L32.4875 20.5134Z" fill="url(#paint1_linear_2166_52)"/>
<path d="M50.8055 18.755H53.2836L57.4971 26.4702L61.7112 18.755H64.1356V31.4321H62.114V21.7162L58.4185 28.4443H56.5218L52.8271 21.7162V31.4321H50.8055V18.755ZM70.4699 23.4817C69.0201 23.4817 68.1469 24.586 67.9379 25.9536H72.8583C72.7569 24.5449 71.9541 23.4817 70.4699 23.4817ZM65.9336 26.7326C65.9336 23.8551 67.771 21.7609 70.505 21.7609C73.1942 21.7609 74.7999 23.8286 74.7999 26.8862V27.4482H67.9379C68.1814 28.9358 69.1567 29.9382 70.7292 29.9382C71.9838 29.9382 72.768 29.5508 73.5115 28.8422L74.5854 30.1735C73.5736 31.1152 72.2866 31.6583 70.6575 31.6583C67.6979 31.6583 65.9336 29.474 65.9336 26.7326ZM77.2511 23.6632H75.3903V21.9878H77.2511V19.2171H79.2016V21.9878H82.0287V23.6632H79.2016V27.9096C79.2016 29.3595 79.6596 29.8747 80.7852 29.8747C81.299 29.8747 81.5935 29.83 82.0287 29.7567V31.414C81.4866 31.5689 80.9693 31.6401 80.4093 31.6401C78.3036 31.6401 77.2511 30.4757 77.2511 28.1449V23.6632ZM90.2418 25.2925C89.8501 24.2914 88.9762 23.5543 87.692 23.5543C86.0229 23.5543 84.9545 24.7529 84.9545 26.7054C84.9545 28.6091 85.938 29.8656 87.6119 29.8656C88.9279 29.8656 89.8673 29.0908 90.2418 28.1267V25.2925ZM92.1923 31.4321H90.2777V30.1099C89.7425 30.8883 88.7686 31.6583 87.1912 31.6583C84.6545 31.6583 82.9592 29.5089 82.9592 26.7054C82.9592 23.8754 84.6952 21.7609 87.2988 21.7609C88.5858 21.7609 89.5956 22.2817 90.2777 23.201V21.9878H92.1923V31.4321Z" fill="#192830"/>
<defs>
<linearGradient id="paint0_linear_2166_52" x1="31.0149" y1="26.5009" x2="44.672" y2="27.1824" gradientUnits="userSpaceOnUse">
<stop stop-color="#0064E1"/>
<stop offset="0.4" stop-color="#0064E1"/>
<stop offset="0.83" stop-color="#0073EE"/>
<stop offset="1" stop-color="#0082FB"/>
</linearGradient>
<linearGradient id="paint1_linear_2166_52" x1="29.9114" y1="28.0367" x2="29.9114" y2="22.9407" gradientUnits="userSpaceOnUse">
<stop stop-color="#0082FB"/>
<stop offset="1" stop-color="#0064E0"/>
</linearGradient>
</defs>
</svg>
