<svg width="120" height="50" viewBox="0 0 120 50" fill="none" xmlns="http://www.w3.org/2000/svg">
<g clip-path="url(#clip0_2166_52)">
<path d="M68.9305 19.9801V30.653H71.9213V19.9801H68.9305ZM45.3992 19.962V30.6439H48.4169V22.3499L50.7701 22.3589C51.5425 22.3589 52.0814 22.5488 52.4496 22.9468C52.9256 23.4533 53.1142 24.2764 53.1142 25.7688V30.6439H56.0422V24.7467C56.0422 20.5319 53.3747 19.962 50.7701 19.962H45.3992ZM73.7535 19.9801V30.653H78.6035C81.1901 30.653 82.0343 30.2188 82.9415 29.251C83.5881 28.5727 84.0013 27.0713 84.0013 25.4341C84.0013 23.9327 83.651 22.5941 83.0313 21.762C81.9356 20.2696 80.3369 19.9801 77.9478 19.9801H73.7535ZM76.7174 22.2956H78.0017C79.8698 22.2956 81.0733 23.1368 81.0733 25.3256C81.0733 27.5144 79.8698 28.3647 78.0017 28.3647H76.7174V22.2956ZM64.6194 19.9801L62.1226 28.437L59.7335 19.9801H56.5002L59.9131 30.653H64.2242L67.6731 19.9801H64.6194ZM85.4024 30.653H88.3932V19.9801H85.4024V30.653ZM93.791 19.9801L89.6146 30.6439H92.5605L93.2252 28.7536H98.1649L98.7936 30.6349H102L97.7877 19.9801H93.791ZM95.731 21.9248L97.5452 26.9175H93.8629L95.731 21.9248Z" fill="black"/>
<path d="M26.0982 21.7529V20.2877C26.2419 20.2786 26.3856 20.2696 26.5293 20.2696C30.517 20.1429 33.1306 23.7247 33.1306 23.7247C33.1306 23.7247 30.3104 27.6682 27.2837 27.6682C26.8795 27.6682 26.4844 27.6049 26.1071 27.4783V23.0282C27.6609 23.2182 27.9753 23.9056 28.9004 25.4703L30.9751 23.7156C30.9751 23.7156 29.4572 21.7167 26.9065 21.7167C26.637 21.7077 26.3676 21.7258 26.0982 21.7529ZM26.0982 16.9049V19.0937L26.5293 19.0666C32.0708 18.8767 35.6903 23.6433 35.6903 23.6433C35.6903 23.6433 31.5409 28.7265 27.2208 28.7265C26.8436 28.7265 26.4754 28.6903 26.1071 28.627V29.9837C26.4125 30.0199 26.7269 30.047 27.0322 30.047C31.0559 30.047 33.9659 27.9757 36.786 25.5336C37.2531 25.9135 39.1661 26.8271 39.5613 27.225C36.8848 29.4862 30.6428 31.3042 27.1041 31.3042C26.7628 31.3042 26.4395 31.2861 26.1161 31.25V33.1584H41.4025V16.9049H26.0982ZM26.0982 27.4783V28.636C22.3799 27.9667 21.347 24.0684 21.347 24.0684C21.347 24.0684 23.1343 22.0785 26.0982 21.7529V23.0192H26.0892C24.5354 22.8293 23.3139 24.2945 23.3139 24.2945C23.3139 24.2945 24.0055 26.7637 26.0982 27.4783ZM19.4968 23.9056C19.4968 23.9056 21.6973 20.6314 26.1071 20.2877V19.0937C21.2213 19.4917 17 23.6523 17 23.6523C17 23.6523 19.3891 30.6168 26.0982 31.25V29.9837C21.1764 29.3686 19.4968 23.9056 19.4968 23.9056Z" fill="#76B900"/>
</g>
<defs>
<clipPath id="clip0_2166_52">
<rect width="85" height="16" fill="white" transform="translate(17 17)"/>
</clipPath>
</defs>
</svg>
