<svg width="120" height="50" viewBox="0 0 120 50" fill="none" xmlns="http://www.w3.org/2000/svg">
<g clip-path="url(#clip0_2166_52)">
<path d="M43.4681 24.0572C43.4681 27.8177 45.8885 30.4397 49.2424 30.4397C52.5963 30.4397 55.0166 27.8177 55.0166 24.0572C55.0166 20.2967 52.5963 17.6747 49.2424 17.6747C45.8885 17.6747 43.4681 20.2967 43.4681 24.0572ZM52.8037 24.0572C52.8037 26.7482 51.3342 28.4905 49.2424 28.4905C47.1505 28.4905 45.681 26.7482 45.681 24.0572C45.681 21.3662 47.1505 19.624 49.2424 19.624C51.3342 19.624 52.8037 21.3662 52.8037 24.0572Z" fill="black"/>
<path d="M61.2483 30.4397C63.7896 30.4397 65.2418 28.3007 65.2418 25.7305C65.2418 23.1602 63.7896 21.0212 61.2483 21.0212C60.0727 21.0212 59.2083 21.487 58.6378 22.1597V21.1937H56.5632V33.355H58.6378V29.3012C59.2083 29.974 60.0727 30.4397 61.2483 30.4397ZM58.5859 25.4717C58.5859 23.764 59.554 22.8325 60.8333 22.8325C62.3374 22.8325 63.15 24.0055 63.15 25.7305C63.15 27.4555 62.3374 28.6285 60.8333 28.6285C59.554 28.6285 58.5859 27.6797 58.5859 26.0065V25.4717Z" fill="black"/>
<path d="M70.8561 30.4397C72.6714 30.4397 74.1063 29.491 74.746 27.904L72.9653 27.2312C72.6887 28.1627 71.8761 28.6802 70.8561 28.6802C69.525 28.6802 68.5914 27.7315 68.4358 26.179H74.7978V25.489C74.7978 23.005 73.3975 21.0212 70.7697 21.0212C68.1419 21.0212 66.4477 23.074 66.4477 25.7305C66.4477 28.525 68.2629 30.4397 70.8561 30.4397ZM70.7524 22.7635C72.0663 22.7635 72.6887 23.626 72.706 24.6265H68.5395C68.8507 23.4017 69.6805 22.7635 70.7524 22.7635Z" fill="black"/>
<path d="M76.3545 30.25H78.4291V24.937C78.4291 23.6432 79.3799 22.9532 80.3135 22.9532C81.4545 22.9532 81.904 23.764 81.904 24.8852V30.25H83.9786V24.2815C83.9786 22.3322 82.8375 21.0212 80.9359 21.0212C79.7603 21.0212 78.9477 21.556 78.4291 22.1597V21.1937H76.3545V30.25Z" fill="black"/>
<path d="M90.0546 17.8645L85.3522 30.25H87.5478L88.6024 27.421H93.9617L95.0336 30.25H97.2638L92.5614 17.8645H90.0546ZM91.2648 20.314L93.2356 25.489H89.3285L91.2648 20.314Z" fill="black"/>
<path d="M100.825 17.9005H98.6122V30.286H100.825V17.9005Z" fill="black"/>
<path d="M38.3984 22.4135C38.9214 20.8473 38.7413 19.1317 37.905 17.7071C36.6472 15.5221 34.1188 14.398 31.6495 14.927C30.551 13.6922 28.9727 12.99 27.3181 13C24.7941 12.9943 22.5545 14.6158 21.778 17.0121C20.1565 17.3434 18.7569 18.3561 17.9379 19.7915C16.6708 21.9707 16.9597 24.7178 18.6525 26.5865C18.1295 28.1527 18.3096 29.8684 19.1459 31.2929C20.4036 33.4779 22.932 34.602 25.4013 34.073C26.4991 35.3079 28.0781 36.0101 29.7327 35.9993C32.2582 36.0058 34.4985 34.3828 35.275 31.9844C36.8965 31.653 38.2961 30.6403 39.1151 29.205C40.3808 27.0257 40.0912 24.2808 38.3991 22.412L38.3984 22.4135ZM29.7341 34.4964C28.7235 34.4978 27.7446 34.1449 26.9688 33.4988C27.0041 33.4801 27.0653 33.4463 27.1049 33.4219L31.6949 30.7769C31.9297 30.6439 32.0738 30.3945 32.0724 30.125V23.6684L34.0122 24.7861C34.0331 24.7961 34.0468 24.8163 34.0497 24.8393V30.186C34.0468 32.5637 32.117 34.4914 29.7341 34.4964ZM20.4533 30.5411C19.9469 29.6685 19.7647 28.6458 19.9383 27.6532C19.9721 27.6733 20.0319 27.71 20.0744 27.7344L24.6644 30.3794C24.8971 30.5152 25.1852 30.5152 25.4186 30.3794L31.0221 27.1508V29.3861C31.0236 29.4091 31.0127 29.4314 30.9947 29.4457L26.355 32.1188C24.2884 33.3061 21.6491 32.6003 20.454 30.5411H20.4533ZM19.2453 20.544C19.7495 19.67 20.5455 19.0016 21.4935 18.6544C21.4935 18.694 21.4913 18.7637 21.4913 18.8125V24.1033C21.4899 24.3721 21.6339 24.6215 21.868 24.7545L27.4716 27.9824L25.5317 29.1C25.5122 29.113 25.4877 29.1151 25.4661 29.1058L20.8257 26.4306C18.7634 25.2389 18.056 22.6061 19.2446 20.5447L19.2453 20.544ZM35.1835 24.2449L29.58 21.0162L31.5199 19.8993C31.5393 19.8864 31.5638 19.8842 31.5854 19.8935L36.2258 22.5666C38.2918 23.7575 38.9999 26.3946 37.8063 28.456C37.3013 29.3286 36.5061 29.997 35.5588 30.3449V24.896C35.561 24.6272 35.4176 24.3785 35.1842 24.2449H35.1835ZM37.114 21.3454C37.0802 21.3246 37.0204 21.2886 36.9779 21.2642L32.3879 18.6192C32.1552 18.4834 31.8671 18.4834 31.6337 18.6192L26.0302 21.8478V19.6125C26.0287 19.5895 26.0395 19.5672 26.0575 19.5529L30.6972 16.882C32.7639 15.6925 35.4061 16.4004 36.5975 18.4632C37.1011 19.3344 37.2833 20.3543 37.1126 21.3454H37.114ZM24.9756 25.3295L23.035 24.2118C23.0141 24.2017 23.0004 24.1816 22.9975 24.1586V18.8118C22.999 16.4313 24.9345 14.5022 27.3203 14.5036C28.3295 14.5036 29.3063 14.8573 30.0821 15.5013C30.0468 15.52 29.9863 15.5537 29.9459 15.5782L25.3559 18.2232C25.1211 18.3561 24.977 18.6048 24.9785 18.8744L24.9756 25.328V25.3295ZM26.0294 23.0625L28.5254 21.6243L31.0214 23.0618V25.9375L28.5254 27.375L26.0294 25.9375V23.0625Z" fill="black"/>
</g>
<defs>
<clipPath id="clip0_2166_52">
<rect width="85" height="23" fill="white" transform="translate(17 13)"/>
</clipPath>
</defs>
</svg>
