<svg width="120" height="50" viewBox="0 0 120 50" fill="none" xmlns="http://www.w3.org/2000/svg">
<g clip-path="url(#clip0_2166_52)">
<path d="M30.3701 15.7767L24.9831 21.0567H30.3701V15.7767ZM30.3701 15.7767V17.2222M24.9707 15V35M30.3701 26.3356L24.9831 21.0556M30.3701 26.3356V33.905L24.9831 28.625M30.3701 26.3356L24.9826 21.0556M30.3701 26.3356L30.3695 28.5944H32.6815V21.0556H24.9826M24.9831 21.0556V28.625M24.9831 21.0556L19.5956 26.3356M24.9831 28.625L19.5956 33.905V26.3356M19.5956 26.3356L19.595 28.5944H17.2837V21.0556H24.9826M19.5956 26.3356L24.9826 21.0556M24.9826 21.0567L19.595 15.7767V21.0567H24.9826Z" stroke="#20808D" stroke-miterlimit="10"/>
<path d="M48.4651 22.2378C48.8015 21.6217 49.2719 21.1472 49.8784 20.8133C50.4837 20.4806 51.194 20.3139 52.0087 20.3139C52.8235 20.3139 53.498 20.4778 54.0625 20.8061C54.6276 21.1344 55.0503 21.5694 55.33 22.1111C55.6097 22.6533 55.7498 23.2472 55.7498 23.8928V24.7872H49.412C49.4631 25.5628 49.7303 26.1794 50.2137 26.6367C50.697 27.0944 51.3461 27.3228 52.1614 27.3228C52.8229 27.3228 53.3301 27.1911 53.6807 26.9278C54.0325 26.6644 54.2889 26.2994 54.4523 25.8317H55.9036C55.7101 26.5572 55.3158 27.1867 54.7201 27.7183C54.125 28.2506 53.2717 28.5161 52.1619 28.5161C51.3268 28.5161 50.5909 28.3494 49.9544 28.0167C49.3184 27.6839 48.8265 27.2089 48.4804 26.5922C48.1343 25.9756 47.9613 25.25 47.9613 24.4144C47.9613 23.5789 48.1292 22.8539 48.4657 22.2372L48.4651 22.2378ZM54.2231 23.6689C54.2231 22.9928 54.045 22.4639 53.6887 22.0806C53.3324 21.6978 52.7724 21.5067 52.0082 21.5067C51.2956 21.5067 50.7124 21.6928 50.2596 22.0656C49.8063 22.4383 49.5289 22.9733 49.4273 23.6689H54.2231ZM57.6539 20.5372V21.775C57.6539 21.845 57.6896 21.8794 57.7611 21.8794C57.8019 21.8794 57.832 21.8694 57.853 21.8494C57.874 21.8294 57.8938 21.79 57.9137 21.7306C58.1781 20.9156 58.8351 20.5078 59.8841 20.5078H60.5558V21.8494H59.685C59.0024 21.8494 58.4935 22.0083 58.1571 22.3267C57.8207 22.645 57.6527 23.1667 57.6527 23.8928V28.2922H56.278V20.5367H57.6539V20.5372ZM68.6275 26.6589C68.2661 27.28 67.7975 27.745 67.2222 28.0528C66.6469 28.3606 66.0279 28.515 65.3664 28.515C64.0632 28.515 63.1463 28.0083 62.617 26.9939C62.5762 26.915 62.5251 26.875 62.4644 26.875C62.4037 26.875 62.3725 26.905 62.3725 26.9644V31.125H60.9978V20.5378H62.3725V21.865C62.3725 21.9244 62.4031 21.9544 62.4644 21.9544C62.5257 21.9544 62.5762 21.9144 62.617 21.8356C63.1463 20.8211 64.0632 20.3144 65.3664 20.3144C66.0279 20.3144 66.6469 20.4689 67.2222 20.7767C67.7975 21.0844 68.2655 21.5494 68.6275 22.1711C68.9889 22.7922 69.1699 23.5411 69.1699 24.415C69.1699 25.2889 68.9889 26.0372 68.6275 26.6589ZM67.0389 22.2744C66.5345 21.7622 65.8702 21.5061 65.0458 21.5061C64.2215 21.5061 63.5565 21.7622 63.0527 22.2744C62.5484 22.7867 62.3634 23.5 62.3634 24.4144C62.3634 25.3289 62.5484 26.0428 63.0527 26.5544C63.5571 27.0667 64.2215 27.3228 65.0458 27.3228C65.8702 27.3228 66.5351 27.0672 67.0389 26.5544C67.5433 26.0422 67.7952 25.3289 67.7952 24.4144C67.7952 23.5 67.5433 22.7867 67.0389 22.2744ZM71.1647 17.5544V28.2917H69.79V17.5556H71.1647V17.5544ZM72.2965 22.2372C72.6324 21.6211 73.1033 21.1467 73.7098 20.8128C74.3151 20.48 75.0255 20.3133 75.8396 20.3133C76.6538 20.3133 77.3295 20.4772 77.894 20.8056C78.4591 21.1339 78.8817 21.5689 79.1614 22.1106C79.4417 22.6528 79.5813 23.2467 79.5813 23.8922V24.7867H73.2434C73.2945 25.5622 73.5617 26.1789 74.0451 26.6361C74.5285 27.0939 75.1775 27.3222 75.9928 27.3222C76.6543 27.3222 77.161 27.1906 77.5121 26.9272C77.8639 26.6639 78.1203 26.2989 78.2837 25.8311H79.735C79.5415 26.5567 79.1467 27.1861 78.5515 27.7178C77.9564 28.25 77.1031 28.5156 75.9934 28.5156C75.1582 28.5156 74.4224 28.3489 73.7858 28.0161C73.1498 27.6833 72.6579 27.2083 72.3118 26.5917C71.9658 25.975 71.7927 25.2494 71.7927 24.4139C71.7927 23.5783 71.9607 22.8533 72.2971 22.2367H72.2965V22.2372ZM78.0545 23.6683C78.0545 22.9922 77.8764 22.4633 77.5201 22.08C77.1638 21.6972 76.6038 21.5061 75.8396 21.5061C75.1276 21.5061 74.5438 21.6922 74.091 22.065C73.6377 22.4378 73.3609 22.9728 73.2587 23.6683H78.0545ZM78.9697 27.9933L82.1156 24.19L79.5347 20.835V20.5367H81.0467L83.2009 23.4294L85.5225 20.5367H87.0646V20.85L84.1019 24.4144L86.8359 27.9933V28.2917H85.3546L83.0177 25.175L80.5134 28.2917H78.9708V27.9933H78.9697ZM89.0605 18.0128V19.6911H87.4549V18.0128H89.0605ZM88.9771 28.2922H87.6019V20.5372H88.9771V28.2922ZM89.4106 20.5372H90.9061V18.4494H92.2813V20.5372H93.8552L94.2415 21.6739H92.2813V25.3839C92.2813 25.8906 92.2683 26.2661 92.2428 26.51C92.2172 26.7539 92.2047 26.9006 92.2047 26.95C92.2047 27.02 92.2246 27.0744 92.2655 27.1139C92.3063 27.1539 92.3619 27.1733 92.434 27.1733C92.4844 27.1733 92.6348 27.1611 92.8844 27.1361C93.1335 27.1111 93.5182 27.0989 94.0378 27.0989H94.5723V28.2917H93.5034C92.6274 28.2917 91.9755 28.0833 91.5483 27.665C91.1211 27.2472 90.9067 26.6117 90.9067 25.7561V21.6733H89.4117V20.5367H89.4106V20.5372ZM94.2693 20.5372H95.6707L97.9463 27.0433C97.9775 27.1233 98.0257 27.2283 98.1818 27.2283C98.3378 27.2283 98.386 27.1228 98.4166 27.0433L100.692 20.5372H101.999V20.8356L99.1525 29.2017C98.908 29.9178 98.5647 30.4172 98.1222 30.7006C97.6791 30.9839 97.1645 31.1256 96.3084 31.1256H94.8423V29.9328H95.9577C96.314 29.9328 96.604 29.945 96.8281 29.97C97.0516 29.995 97.1946 30.0072 97.2558 30.0072C97.4289 30.0072 97.5458 29.9328 97.6076 29.7839L98.0354 28.6506C98.0864 28.5317 98.091 28.4422 98.0507 28.3817C98.0303 28.3417 98.0053 28.3167 97.9747 28.3072C97.944 28.2972 97.8981 28.2922 97.8374 28.2922H96.9058L94.2705 20.5378H94.2693V20.5372ZM47.0876 26.6717C46.7262 27.2928 46.2575 27.7578 45.6823 28.0656C45.107 28.3733 44.488 28.5278 43.8265 28.5278C42.5233 28.5278 41.6064 28.0211 41.0771 27.0067C41.0362 26.9278 40.9852 26.8878 40.9245 26.8878C40.8638 26.8878 40.8326 26.9178 40.8326 26.9772V31.1378H39.4579V20.5506H40.8326V21.8778C40.8326 21.9372 40.8632 21.9672 40.9245 21.9672C40.9858 21.9672 41.0362 21.9272 41.0771 21.8483C41.6059 20.8339 42.5233 20.3272 43.8265 20.3272C44.488 20.3272 45.107 20.4817 45.6823 20.7894C46.2575 21.0972 46.7256 21.5622 47.0876 22.1833C47.449 22.8044 47.63 23.5533 47.63 24.4278C47.63 25.3022 47.449 26.0506 47.0876 26.6717ZM45.499 22.2872C44.9946 21.775 44.3303 21.5189 43.5059 21.5189C42.6816 21.5189 42.0166 21.775 41.5128 22.2872C41.0084 22.7994 40.8235 23.5128 40.8235 24.4272C40.8235 25.3417 41.0084 26.0556 41.5128 26.5672C42.0172 27.0794 42.6816 27.3356 43.5059 27.3356C44.3303 27.3356 44.9952 27.08 45.499 26.5672C46.0034 26.055 46.2553 25.3417 46.2553 24.4272C46.2553 23.5128 46.0034 22.7994 45.499 22.2872Z" fill="#13343B"/>
</g>
<defs>
<clipPath id="clip0_2166_52">
<rect width="85" height="20" fill="white" transform="translate(17 15)"/>
</clipPath>
</defs>
</svg>
