<svg width="120" height="50" viewBox="0 0 120 50" fill="none" xmlns="http://www.w3.org/2000/svg">
<path d="M69.51 38.51H50.49C48.28 38.51 46.49 36.72 46.49 34.51V15.49C46.49 13.28 48.28 11.49 50.49 11.49H69.52C71.73 11.49 73.52 13.28 73.52 15.49V34.52C73.51 36.72 71.72 38.51 69.51 38.51Z" fill="#2D2D2D" stroke="white" stroke-width="0.6317" stroke-miterlimit="10"/>
<path d="M60.47 17.1L59.17 18.95C58.97 19.24 58.63 19.42 58.27 19.42H51.17V17.09C51.16 17.1 60.47 17.1 60.47 17.1Z" fill="white"/>
<path d="M69.3 17.1L58.14 32.91H50.7L61.86 17.1H69.3Z" fill="white"/>
<path d="M59.53 32.91L60.84 31.05C61.04 30.76 61.38 30.58 61.74 30.58H68.83V32.91H59.53Z" fill="white"/>
</svg>
